<?xml version="1.0" encoding="utf-8"?>
<!-- Generator: Adobe Illustrator 27.2.0, SVG Export Plug-In . SVG Version: 6.00 Build 0)  -->
<svg version="1.1" id="Layer_1" xmlns="http://www.w3.org/2000/svg" xmlns:xlink="http://www.w3.org/1999/xlink" x="0px" y="0px"
	 viewBox="0 0 24 24" style="enable-background:new 0 0 24 24;" xml:space="preserve">
<style type="text/css">
	.st0{fill:#6CBE45;}
	.st1{fill:#010101;}
</style>
<g>
	<path class="st0" d="M13.1,8.3C13.1,8.3,13.2,8.3,13.1,8.3l3.3-3.2c0.2-0.2,0.4-0.3,0.7-0.4c0.4-0.2,0.8-0.2,1.1-0.1
		c0.4,0.1,0.8,0.3,1,0.6c0.2,0.2,0.4,0.4,0.5,0.7c0.1,0.4,0.2,0.8,0.1,1.2s-0.3,0.8-0.6,1.1l-4.6,4.6c-0.2,0.2-0.4,0.4-0.7,0.4
		c-0.4,0.1-0.8,0.2-1.2,0.1c-0.4-0.1-0.8-0.3-1.1-0.6c-0.2-0.2-0.3-0.3-0.4-0.5c0,0,0,0,0,0c-0.2,0-0.5,0-0.7,0.1
		c-0.1,0.1-0.3,0.1-0.4,0.3l-0.1,0.1c-0.3,0.4-0.6,1-0.1,1.8c0.4,0.4,0.9,0.7,1.4,0.9c0.8,0.3,1.6,0.4,2.4,0.2
		c0.8-0.2,1.6-0.6,2.2-1.2l4.5-4.6c0.4-0.4,0.7-0.9,1-1.4c0.3-0.8,0.4-1.6,0.2-2.4c-0.2-0.8-0.6-1.6-1.2-2.2C20.5,3,20,2.7,19.5,2.5
		c-0.8-0.3-1.6-0.4-2.5-0.2c-0.8,0.2-1.6,0.6-2.2,1.2L10.2,8c0,0,0,0,0,0c0,0,0,0,0,0C11.2,7.8,12.2,7.9,13.1,8.3z"/>
</g>
<path class="st1" d="M11.4,15.8C11.4,15.8,11.4,15.8,11.4,15.8l-3.3,3.2c-0.2,0.2-0.4,0.4-0.7,0.5c-0.4,0.1-0.8,0.2-1.2,0.1
	c-0.4-0.1-0.8-0.3-1-0.6c-0.2-0.2-0.3-0.4-0.4-0.7c-0.2-0.4-0.2-0.8-0.1-1.1c0.1-0.4,0.3-0.8,0.6-1l4.6-4.6c0.2-0.2,0.4-0.4,0.7-0.4
	c0.4-0.1,0.8-0.2,1.2-0.1c0.4,0.1,0.8,0.3,1.1,0.6c0.2,0.2,0.3,0.3,0.4,0.5c0,0,0,0,0,0c0.2,0,0.5,0,0.7-0.1
	c0.1-0.1,0.3-0.1,0.4-0.3l0.1-0.1c0.3-0.4,0.6-1,0.1-1.8c-0.4-0.4-0.9-0.7-1.4-0.9c-0.8-0.3-1.6-0.4-2.4-0.2C9.6,9,8.8,9.4,8.2,10.1
	l-4.6,4.5c-0.4,0.4-0.7,0.9-1,1.4c-0.3,0.8-0.4,1.6-0.2,2.5c0.2,0.8,0.6,1.6,1.2,2.2c0.4,0.4,0.9,0.7,1.4,1c0.8,0.3,1.6,0.4,2.5,0.2
	c0.8-0.2,1.6-0.6,2.2-1.2l4.6-4.6c0,0,0,0,0.1,0c0,0,0,0,0,0C13.3,16.3,12.3,16.2,11.4,15.8z"/>
</svg>
