<?xml version="1.0" encoding="utf-8"?>
<!-- Generator: Adobe Illustrator 27.2.0, SVG Export Plug-In . SVG Version: 6.00 Build 0)  -->
<svg version="1.1" id="Layer_1" xmlns="http://www.w3.org/2000/svg" xmlns:xlink="http://www.w3.org/1999/xlink" x="0px" y="0px"
	 viewBox="0 0 24 24" style="enable-background:new 0 0 24 24;" xml:space="preserve">
<style type="text/css">
	.st0{fill-rule:evenodd;clip-rule:evenodd;fill:#010101;}
</style>
<g id="Page-1">
	<g id="Icon-Set" transform="translate(-308.000000, -1191.000000)">
		<path id="expand" class="st0" d="M331.76,1191.23c-0.14-0.14-0.33-0.23-0.53-0.23h-6.73c-0.41,0-0.75,0.34-0.75,0.75
			s0.34,0.75,0.75,0.75h4.97l-8.1,8.1l1.06,1.06l8.09-8.09l-0.02,4.93c0,0.41,0.34,0.75,0.75,0.75s0.75-0.34,0.75-0.75v-6.75
			C332,1191.52,331.91,1191.34,331.76,1191.23L331.76,1191.23z M317.57,1204.34l-8.09,8.09l0.02-4.93c0-0.41-0.34-0.75-0.75-0.75
			s-0.75,0.34-0.75,0.75v6.75c0,0.23,0.09,0.41,0.24,0.52c0.14,0.14,0.33,0.23,0.53,0.23h6.73c0.41,0,0.75-0.34,0.75-0.75
			s-0.34-0.75-0.75-0.75h-4.97l8.1-8.1L317.57,1204.34L317.57,1204.34z"/>
	</g>
</g>
</svg>
