<?xml version="1.0" encoding="utf-8"?>
<!-- Generator: Adobe Illustrator 27.2.0, SVG Export Plug-In . SVG Version: 6.00 Build 0)  -->
<svg version="1.1" id="Layer_1" xmlns="http://www.w3.org/2000/svg" xmlns:xlink="http://www.w3.org/1999/xlink" x="0px" y="0px"
	 viewBox="0 0 24 24" style="enable-background:new 0 0 24 24;" xml:space="preserve">
<style type="text/css">
	.st0{fill-rule:evenodd;clip-rule:evenodd;fill:#667380;}
	.st1{fill-rule:evenodd;clip-rule:evenodd;fill:#6A9F4C;}
</style>
<path id="search-2" class="st0" d="M7.93,13.51l3.19,3.19l-6.64,6.65c-0.31,0.31-0.82,0.31-1.13,0c0,0,0,0,0,0l-2.07-2.07
	c-0.31-0.31-0.31-0.82,0-1.13c0,0,0,0,0,0L7.93,13.51z"/>
<path id="search-3" class="st1" d="M15.98,0.59c4.3,0,7.78,3.48,7.78,7.78s-3.48,7.78-7.78,7.78S8.2,12.67,8.2,8.37
	S11.68,0.59,15.98,0.59z M15.98,2.92c3.01,0,5.45,2.44,5.45,5.45s-2.44,5.45-5.45,5.45s-5.45-2.44-5.45-5.45l0,0
	C10.53,5.36,12.97,2.92,15.98,2.92z"/>
</svg>
