<?xml version="1.0" encoding="utf-8"?>
<!-- Generator: Adobe Illustrator 27.2.0, SVG Export Plug-In . SVG Version: 6.00 Build 0)  -->
<svg version="1.1" id="Layer_1" xmlns="http://www.w3.org/2000/svg" xmlns:xlink="http://www.w3.org/1999/xlink" x="0px" y="0px"
	 viewBox="0 0 14.34 22" style="enable-background:new 0 0 14.34 22;" xml:space="preserve">
<style type="text/css">
	.st0{fill-rule:evenodd;clip-rule:evenodd;fill:#010101;}
</style>
<path class="st0" d="M11.91,1H2.43C1.45,1,0.65,1.8,0.65,2.78V21l6.52-3.91L13.68,21V2.78C13.68,1.8,12.89,1,11.91,1z M12.5,18.91
	l-5.33-3.2l-5.33,3.2V2.78c0-0.33,0.27-0.59,0.59-0.59h9.48c0.32,0,0.59,0.27,0.59,0.59L12.5,18.91L12.5,18.91z M10.1,6.61
	L9.26,5.77l-2.09,2.1l-2.09-2.1L4.23,6.61l2.1,2.09l-2.09,2.09l0.84,0.84l2.08-2.09l2.09,2.09l0.84-0.84L8.01,8.7L10.1,6.61
	L10.1,6.61z"/>
</svg>
