<?xml version="1.0" encoding="utf-8"?>
<!-- Generator: Adobe Illustrator 27.2.0, SVG Export Plug-In . SVG Version: 6.00 Build 0)  -->
<svg version="1.1" id="Layer_1" xmlns="http://www.w3.org/2000/svg" xmlns:xlink="http://www.w3.org/1999/xlink" x="0px" y="0px"
	 viewBox="0 0 24 24" style="enable-background:new 0 0 24 24;" xml:space="preserve">
<style type="text/css">
	.st0{fill:#010101;}
	.st1{fill:#EF3F24;}
</style>
<g>
	<path class="st0" d="M13.15,8.3c0,0,0.01,0,0.01,0.01l3.25-3.26c0.2-0.2,0.43-0.35,0.67-0.44c0.37-0.15,0.77-0.19,1.15-0.11
		c0.39,0.07,0.75,0.26,1.05,0.56c0.2,0.2,0.35,0.43,0.45,0.67c0.15,0.36,0.19,0.77,0.11,1.15c-0.08,0.38-0.26,0.75-0.56,1.05
		l-4.55,4.55c-0.2,0.2-0.43,0.35-0.67,0.45c-0.37,0.15-0.77,0.18-1.16,0.11c-0.39-0.08-0.75-0.26-1.05-0.56
		c-0.16-0.16-0.29-0.34-0.38-0.54c-0.01,0-0.02-0.01-0.03-0.01c-0.22-0.04-0.46-0.02-0.67,0.07c-0.15,0.06-0.28,0.15-0.39,0.26
		l-0.06,0.07c-0.34,0.41-0.61,1-0.07,1.76c0.42,0.42,0.91,0.74,1.43,0.95c0.78,0.32,1.63,0.39,2.45,0.24
		c0.81-0.16,1.6-0.56,2.23-1.19l4.55-4.55c0.42-0.42,0.74-0.91,0.95-1.43c0.32-0.78,0.4-1.63,0.24-2.45
		c-0.16-0.81-0.56-1.6-1.19-2.23C20.49,3.01,20,2.69,19.48,2.48c-0.78-0.32-1.63-0.4-2.45-0.24c-0.81,0.16-1.6,0.56-2.23,1.19
		l-4.55,4.55C10.23,8,10.22,8.02,10.2,8.03c0.01,0,0.01,0,0.02,0C11.2,7.83,12.22,7.92,13.15,8.3z"/>
	<path class="st0" d="M11.4,15.84c0,0-0.01,0-0.02-0.01l-3.25,3.26c-0.2,0.2-0.43,0.35-0.67,0.45c-0.37,0.15-0.77,0.19-1.15,0.11
		c-0.39-0.08-0.75-0.26-1.05-0.56c-0.2-0.2-0.35-0.43-0.45-0.67c-0.15-0.36-0.19-0.77-0.11-1.15c0.08-0.39,0.26-0.75,0.56-1.05
		l4.55-4.55c0.2-0.2,0.43-0.35,0.67-0.45c0.36-0.15,0.77-0.19,1.16-0.11c0.39,0.08,0.75,0.26,1.05,0.56
		c0.16,0.16,0.29,0.34,0.38,0.54c0.01,0,0.02,0,0.03,0.01c0.22,0.04,0.46,0.02,0.67-0.07c0.15-0.06,0.28-0.15,0.39-0.26l0.07-0.07
		c0.34-0.41,0.61-1,0.07-1.76c-0.42-0.42-0.91-0.74-1.43-0.95c-0.78-0.32-1.63-0.39-2.45-0.24c-0.81,0.16-1.6,0.56-2.23,1.19
		L3.63,14.6c-0.42,0.42-0.74,0.91-0.95,1.43c-0.32,0.78-0.4,1.63-0.24,2.45c0.16,0.81,0.56,1.6,1.19,2.23
		c0.42,0.42,0.91,0.74,1.43,0.95c0.78,0.32,1.63,0.4,2.45,0.24c0.81-0.16,1.6-0.56,2.23-1.19l4.55-4.55
		c0.02-0.02,0.03-0.03,0.05-0.05c-0.01,0-0.01,0-0.02,0C13.34,16.3,12.33,16.21,11.4,15.84z"/>
	<path class="st1" d="M18.68,14.67c-2.07,0-3.75,1.68-3.75,3.75c0,2.07,1.68,3.75,3.75,3.75c2.07,0,3.75-1.68,3.75-3.75
		C22.43,16.35,20.75,14.67,18.68,14.67z M20.59,18.99h-3.81v-1.14h3.81V18.99z"/>
</g>
</svg>
